<svg width="100" height="100" viewBox="0 0 100 100" fill="none" xmlns="http://www.w3.org/2000/svg">
<path d="M38.9583 22.1708C42.6879 15.7106 48.8311 10.9965 56.0364 9.06568C63.2417 7.13484 70.9189 8.14537 77.3792 11.875C83.8394 15.6046 88.5534 21.7478 90.4843 28.9531C92.4151 36.1584 91.4046 43.8356 87.675 50.2958L86.6333 52.1041C86.4279 52.4596 86.1545 52.7712 85.8287 53.0209C85.5029 53.2707 85.1311 53.4539 84.7345 53.5599C84.3378 53.6659 83.9242 53.6927 83.5172 53.6389C83.1102 53.585 82.7178 53.4514 82.3625 53.2458L63.3708 42.2791L53.4833 59.5791C61.4208 60.5208 68.4417 64.6208 73.6625 70.475C71.4861 70.8288 69.5385 72.0303 68.2458 73.8166C63.3917 68.7833 56.9417 65.625 50 65.625C43.0583 65.625 36.6083 68.7833 31.75 73.8166C30.458 72.0316 28.5122 70.8303 26.3375 70.475C31.5042 64.6833 38.4333 60.6083 46.2667 59.6125L57.9583 39.1541L39.0625 28.2458C38.7067 28.0408 38.3947 27.7676 38.1445 27.442C37.8943 27.1163 37.7108 26.7445 37.6044 26.3479C37.4979 25.9512 37.4707 25.5375 37.5243 25.1304C37.5779 24.7232 37.7112 24.3306 37.9167 23.975L38.9583 22.1708ZM44.9167 24.4083L53.1083 29.1375C55.3333 25.725 57.5833 22.9166 60.3708 20.3791C62.7138 18.2864 65.2629 16.4366 67.9792 14.8583C63.6199 13.9101 59.0749 14.3166 54.9531 16.0234C50.8312 17.7302 47.3294 20.6558 44.9167 24.4083ZM69.125 38.3833C71.4333 34.2291 72.5417 30.925 72.9417 27.7375C73.2625 25.1541 73.1375 22.5083 72.675 19.3625C69.2667 21.2791 66.7167 23.0583 64.575 25.0041C62.3542 27.025 60.4875 29.3 58.5292 32.2666L69.125 38.3833ZM74.5375 41.5083L82.7625 46.2583C84.8418 42.2232 85.6152 37.6415 84.9754 33.1474C84.3356 28.6534 82.3144 24.4695 79.1917 21.175C79.4457 23.6152 79.429 26.076 79.1417 28.5125C78.6167 32.7208 77.1583 36.8166 74.5375 41.5125V41.5083ZM27.975 77.75C27.7666 77.0998 27.351 76.5358 26.7917 76.1441C26.2324 75.7524 25.5603 75.5547 24.878 75.5812C24.1958 75.6076 23.5409 75.8568 23.0137 76.2906C22.4864 76.7244 22.1157 77.3189 21.9583 77.9833C21.0833 81.6958 19.4292 83.6666 17.6208 84.7916C15.7042 85.9833 13.2458 86.4625 10.4167 86.4625C9.58785 86.4625 8.793 86.7917 8.20695 87.3778C7.6209 87.9638 7.29166 88.7587 7.29166 89.5875C7.29166 90.4163 7.6209 91.2111 8.20695 91.7972C8.793 92.3832 9.58785 92.7125 10.4167 92.7125C13.8417 92.7125 17.625 92.15 20.9208 90.1C22.684 89.0019 24.1926 87.5402 25.3458 85.8125C31.8125 93.5875 43.7208 93.55 50 85.6916C56.3917 93.6875 68.6083 93.5875 74.9875 85.4C78.5208 90.0166 84.0292 92.7125 89.5833 92.7125C90.4121 92.7125 91.207 92.3832 91.793 91.7972C92.3791 91.2111 92.7083 90.4163 92.7083 89.5875C92.7083 88.7587 92.3791 87.9638 91.793 87.3778C91.207 86.7917 90.4121 86.4625 89.5833 86.4625C84.6542 86.4625 79.65 83.1416 77.9833 77.7791C77.786 77.1452 77.3919 76.5906 76.8581 76.1957C76.3244 75.8008 75.6788 75.5862 75.0148 75.583C74.3509 75.5797 73.7032 75.788 73.1656 76.1777C72.628 76.5673 72.2285 77.118 72.025 77.75C68.7583 87.9166 56.15 87.7458 52.9625 78.1833C52.7541 77.5626 52.356 77.0231 51.8245 76.6408C51.2929 76.2586 50.6547 76.0529 50 76.0529C49.3453 76.0529 48.7071 76.2586 48.1755 76.6408C47.6439 77.0231 47.2459 77.5626 47.0375 78.1833C43.85 87.7458 31.2417 87.9125 27.975 77.75Z" fill="black"/>
</svg>
