<svg width="100" height="100" viewBox="0 0 100 100" fill="none" xmlns="http://www.w3.org/2000/svg">
<path d="M2 10L17.234 25.786L23.088 20.458L17.788 10.048L2 10ZM70.672 54.216C73.55 55.02 76.648 53.368 77.464 50.398C78.254 47.482 76.574 44.416 73.668 43.588L71.414 42.958L68.488 53.562L70.672 54.216ZM68.898 42.276L50.668 37.07C49.468 36.754 48.258 37.486 47.92 38.7L46.216 44.878C45.882 46.094 46.528 47.334 47.752 47.7L65.996 52.858L68.898 42.276ZM71.774 59.838C70.3377 58.4381 68.5753 57.4181 66.646 56.87L44.54 50.596L30.96 26.176C30.24 24.912 29.088 23.914 27.6 23.5C24.624 22.65 21.528 24.424 20.714 27.44C20.3202 28.8222 20.475 30.3031 21.146 31.574L38.134 61.782C38.134 61.782 39.526 64.044 43.028 65.214L73.912 73.996L88.236 88.734C88.716 89.244 89.342 89.632 90.084 89.854C92.244 90.462 94.498 89.146 95.124 86.98C95.534 85.45 95.054 83.844 93.972 82.846L71.774 59.838ZM88.262 65.944L91.472 70.2L98 62.974L92.484 59.858C93.008 55.942 90.608 52.15 86.77 51.056C82.548 49.862 78.156 52.344 76.984 56.626C75.78 60.932 78.254 65.356 82.476 66.55C84.492 67.132 86.532 66.816 88.262 65.944Z" fill="black"/>
</svg>
