<svg width="100" height="100" viewBox="0 0 100 100" fill="none" xmlns="http://www.w3.org/2000/svg">
<path d="M80.4166 70.4167C82.8333 66.2083 84.375 61.125 82.5416 55.2083C80.3333 48.0417 74.0416 42.5 66.5417 41.7917C63.7604 41.4948 60.948 41.8242 58.3106 42.7558C55.6733 43.6873 53.2779 45.1973 51.3001 47.1751C49.3223 49.1529 47.8123 51.5483 46.8807 54.1857C45.9492 56.823 45.6198 59.6354 45.9167 62.4167C46.6667 69.875 52.1666 76.2084 59.3333 78.4167C65.2916 80.25 70.3333 78.7083 74.5416 76.2917L84.9583 86.7083C86.5833 88.3334 89.1667 88.3334 90.7917 86.7083C91.1777 86.327 91.4841 85.8728 91.6933 85.3722C91.9025 84.8715 92.0101 84.3343 92.0101 83.7917C92.0101 83.2491 91.9025 82.7119 91.6933 82.2112C91.4841 81.7105 91.1777 81.2564 90.7917 80.875L80.4166 70.4167ZM64.5833 70.8333C58.75 70.8333 54.1666 66.25 54.1666 60.4167C54.1666 54.5833 58.75 50 64.5833 50C70.4167 50 75 54.5833 75 60.4167C75 66.25 70.4167 70.8333 64.5833 70.8333ZM50 83.3334V91.6667C27 91.6667 8.33331 73 8.33331 50C8.33331 27 27 8.33334 50 8.33334C70.1667 8.33334 86.9583 22.6667 90.8333 41.6667H82.2083C80.9088 36.6327 78.4497 31.9724 75.0276 28.0584C71.6056 24.1444 67.3154 21.0851 62.5 19.125V20.8333C62.5 25.4167 58.75 29.1667 54.1666 29.1667H45.8333V37.5C45.8333 39.7917 43.9583 41.6667 41.6666 41.6667H33.3333V50H41.6666V62.5H37.5L17.5416 42.5417C17 44.9583 16.6666 47.4167 16.6666 50C16.6666 68.375 31.625 83.3334 50 83.3334Z" fill="white"/>
</svg>
