<svg width="100" height="100" viewBox="0 0 100 100" fill="none" xmlns="http://www.w3.org/2000/svg">
<path d="M50 6.66663C48 6.66663 47.3333 7.99996 46 9.33329L7.33334 72.6666C6.66667 73.3333 6.66667 74.6666 6.66667 75.3333C6.66667 78.6666 9.33334 80 11.3333 80H88.6667C91.3333 80 93.3333 78.6666 93.3333 75.3333C93.3333 74 93.3333 74 92.6667 72.6666L54.6667 9.33329C53.3333 7.99996 52 6.66663 50 6.66663ZM50 16.6666L72 53.3333H66.6667L56.6667 43.3333L50 53.3333L43.3333 43.3333L33.3333 53.3333H27.3333L50 16.6666Z" fill="black"/>
</svg>
