<svg width="100" height="100" viewBox="0 0 100 100" fill="none" xmlns="http://www.w3.org/2000/svg">
<path d="M79.844 56.174C80.77 56.628 81.898 56.62 82.35 56.152C82.808 55.686 82.412 54.95 81.474 54.518L65.118 46.942C64.18 46.506 62.604 46.396 61.62 46.692L55.77 48.446C54.776 48.744 53.48 48.988 52.892 48.988C52.304 48.988 51.814 48.16 51.814 47.144V29.306C51.814 28.292 52.66 27.46 53.696 27.46H96.114C97.154 27.46 97.998 26.63 97.998 25.614V19.624C97.998 18.608 97.184 17.54 96.194 17.25L51.524 4.21603C50.534 3.92603 48.91 3.92603 47.92 4.22003L3.798 17.248C2.81 17.538 2 18.61 2 19.624V25.612C2 26.628 2.846 27.458 3.88 27.458H45.74C46.776 27.458 47.622 28.29 47.622 29.304V47.152C47.6157 47.6461 47.4143 48.1176 47.0617 48.4638C46.7092 48.8099 46.2341 49.0027 45.74 49H44.98C43.944 49.002 42.492 48.422 41.748 47.714L31.656 38.076C30.91 37.366 29.458 36.788 28.422 36.788H23.754C22.722 36.788 21.476 36.178 20.99 35.436C20.508 34.692 19.384 34.088 18.494 34.088C17.604 34.088 17.33 34.784 17.89 35.64L17.978 35.774C18.538 36.628 18.54 38.034 17.99 38.892L12.942 46.74C12.6782 47.1822 12.5732 47.7011 12.6445 48.211C12.7158 48.7209 12.959 49.1912 13.334 49.544L13.692 49.866C14.462 50.546 15.834 50.722 16.752 50.248L22.16 47.434C23.08 46.958 24.282 47.268 24.84 48.122L30.774 57.206C31.043 57.6394 31.1489 58.1543 31.0726 58.6586C30.9964 59.1629 30.7431 59.6236 30.358 59.958L27.644 62.224C26.854 62.88 26.394 64.226 26.622 65.22L30.14 80.524C30.368 81.518 31.378 82.124 32.382 81.874L34.828 81.27C35.3104 81.1506 35.7276 80.8488 35.9921 80.4281C36.2565 80.0073 36.3475 79.5005 36.246 79.014L33.864 68.664C33.7609 68.1749 33.8489 67.6649 34.11 67.2387C34.3711 66.8124 34.7854 66.5023 35.268 66.372L41.282 64.76C42.4935 64.4655 43.7335 64.3039 44.98 64.278H45.74C46.776 64.278 47.622 65.108 47.622 66.118V84.472C47.6152 84.9654 47.4134 85.436 47.0608 85.7811C46.7082 86.1262 46.2334 86.3178 45.74 86.314H3.88C3.38595 86.3108 2.91075 86.5035 2.5584 86.8498C2.20606 87.1962 2.00528 87.668 2 88.162V94.146C2 95.172 2.846 96 3.88 96H95.336C96.372 96 97.216 95.172 97.216 94.15V88.166C97.2107 87.672 97.0099 87.2002 96.6576 86.8538C96.3053 86.5075 95.8301 86.3148 95.336 86.318H53.698C53.2045 86.3223 52.7294 86.1309 52.3766 85.7857C52.0239 85.4404 51.8223 84.9695 51.816 84.476V66.122C51.816 65.112 52.662 64.282 53.698 64.282H55.866C56.902 64.282 58.556 64.496 59.562 64.764L65.576 66.376C66.58 66.642 67.212 67.676 66.98 68.668L64.604 79.018C64.4985 79.5037 64.5869 80.0113 64.8503 80.4327C65.1137 80.8541 65.5313 81.156 66.014 81.274L68.464 81.878C68.6998 81.9391 68.9454 81.9526 69.1865 81.9175C69.4275 81.8825 69.6592 81.7997 69.8678 81.6739C70.0764 81.5482 70.2579 81.3821 70.4015 81.1853C70.545 80.9885 70.6479 80.7651 70.704 80.528L74.226 65.224C74.46 64.23 74.016 62.904 73.25 62.26C72.486 61.624 71.812 60.268 71.752 59.256L71.446 53.842C71.384 52.83 72.098 52.372 73.026 52.828L79.844 56.174Z" fill="black"/>
</svg>
