<svg width="175" height="35" viewBox="0 0 175 35" fill="none" xmlns="http://www.w3.org/2000/svg">
<path d="M17.5 2.1875L12.5234 12.2719L1.39999 13.8797L9.45 21.7328L7.54687 32.8125L17.5 27.5844L27.4531 32.8125L25.55 21.7328L33.6 13.8906L22.4766 12.2719L17.5 2.1875Z" fill="#FFB800"/>
<path d="M52.5 2.1875L47.5234 12.2719L36.4 13.8797L44.45 21.7328L42.5469 32.8125L52.5 27.5844L62.4531 32.8125L60.55 21.7328L68.6 13.8906L57.4766 12.2719L52.5 2.1875Z" fill="#FFB800"/>
<path d="M87.5 2.1875L82.5234 12.2719L71.4 13.8797L79.45 21.7328L77.5469 32.8125L87.5 27.5844L97.4531 32.8125L95.55 21.7328L103.6 13.8906L92.4766 12.2719L87.5 2.1875Z" fill="#FFB800"/>
<path d="M122.5 2.1875L117.523 12.2719L106.4 13.8797L114.45 21.7328L112.547 32.8125L122.5 27.5844L132.453 32.8125L130.55 21.7328L138.6 13.8906L127.477 12.2719L122.5 2.1875Z" fill="#FFB800"/>
<path d="M152.523 12.2719L141.4 13.8906L149.45 21.7328L147.547 32.8125L157.5 27.5844V2.1875L152.523 12.2719Z" fill="#FFB800"/>
</svg>
